<svg preserveAspectRatio="none" overflow="visible" style="display: block;" width="42" height="42.3002" viewBox="0 0 42 42.3002" fill="none" xmlns="http://www.w3.org/2000/svg">
<g id="Messages">
<foreignObject x="-7.50873" y="8.78424" width="42.2205" height="41.0247"><div xmlns="http://www.w3.org/1999/xhtml" style="backdrop-filter:blur(3.75px);clip-path:url(#bgblur_0_0_32_clip_path);height:100%;width:100%"></div></foreignObject><path id="Vector" data-figma-bg-blur-radius="7.50873" d="M27.203 31.2375C27.203 31.9577 27.1229 32.638 26.9428 33.2582C26.2022 36.1991 23.7601 38.0397 20.3973 38.0397H14.9526L8.90753 42.0609C8.00676 42.6811 6.80574 42.0209 6.80574 40.9406V38.0397C4.76402 38.0397 3.06259 37.3595 1.8816 36.1791C0.68058 34.9787 0 33.2781 0 31.2375V23.0951C0 19.2939 2.362 16.6731 6.00508 16.333C6.2653 16.313 6.52551 16.293 6.80574 16.293H20.3973C24.4807 16.293 27.203 19.0139 27.203 23.0951V31.2375Z" fill="url(#paint0_linear_0_32)"/>
<foreignObject x="0.41279" y="-7.50873" width="49.0959" height="47.598"><div xmlns="http://www.w3.org/1999/xhtml" style="backdrop-filter:blur(3.75px);clip-path:url(#bgblur_1_0_32_clip_path);height:100%;width:100%"></div></foreignObject><path id="Vector_2" data-figma-bg-blur-radius="7.50873" d="M7.92152 18.7217C7.92152 19.624 8.0218 20.4761 8.24748 21.2531C9.1753 24.9373 12.2346 27.2431 16.4474 27.2431H23.2681L30.8411 32.2807C31.9695 33.0577 33.4741 32.2306 33.4741 30.8772V27.2431C36.0319 27.2431 38.1633 26.391 39.6428 24.9123C41.1474 23.4085 42 21.2781 42 18.7217V8.52137C42 3.75946 39.041 0.47624 34.4772 0.0501743C34.1512 0.0251116 33.8252 0 33.4741 0H16.4474C11.3319 0 7.92152 3.40858 7.92152 8.52137V18.7217Z" fill="#FFB4CD" fill-opacity="0.3"/>
<path id="Vector_3" d="M32.9746 26.7432H33.4746C35.9192 26.7431 37.9165 25.9304 39.2891 24.5586C40.6876 23.1608 41.5 21.1638 41.5 18.7217V8.52148C41.5 6.24593 40.7948 4.35773 39.5771 2.99219C38.3617 1.62926 36.6058 0.751989 34.4395 0.547852L34.4385 0.548828C34.1105 0.523615 33.8033 0.500023 33.4746 0.5H16.4473C14.0031 0.500029 12.0047 1.3124 10.6191 2.69727C9.23375 4.08212 8.42188 6.079 8.42188 8.52148V18.7217C8.42188 19.588 8.51793 20.3915 8.72754 21.1133L8.73047 21.1221L8.73242 21.1309C9.59879 24.5711 12.4404 26.7431 16.4473 26.7432H23.4189L23.5449 26.8271L31.1182 31.8643L31.125 31.8691C31.9093 32.4088 32.9746 31.8426 32.9746 30.877V26.7432Z" stroke="url(#paint1_linear_0_32)"/>
<g id="Group 6">
<circle id="Ellipse 37" cx="18.9842" cy="14.0506" r="2.242" fill="white"/>
<circle id="Ellipse 38" cx="24.9608" cy="14.0506" r="2.242" fill="white"/>
<circle id="Ellipse 39" cx="30.9373" cy="14.0506" r="2.242" fill="white"/>
</g>
</g>
<defs>
<clipPath id="bgblur_0_0_32_clip_path" transform="translate(7.50873 -8.78424)"><path d="M27.203 31.2375C27.203 31.9577 27.1229 32.638 26.9428 33.2582C26.2022 36.1991 23.7601 38.0397 20.3973 38.0397H14.9526L8.90753 42.0609C8.00676 42.6811 6.80574 42.0209 6.80574 40.9406V38.0397C4.76402 38.0397 3.06259 37.3595 1.8816 36.1791C0.68058 34.9787 0 33.2781 0 31.2375V23.0951C0 19.2939 2.362 16.6731 6.00508 16.333C6.2653 16.313 6.52551 16.293 6.80574 16.293H20.3973C24.4807 16.293 27.203 19.0139 27.203 23.0951V31.2375Z"/>
</clipPath><clipPath id="bgblur_1_0_32_clip_path" transform="translate(-0.41279 7.50873)"><path d="M7.92152 18.7217C7.92152 19.624 8.0218 20.4761 8.24748 21.2531C9.1753 24.9373 12.2346 27.2431 16.4474 27.2431H23.2681L30.8411 32.2807C31.9695 33.0577 33.4741 32.2306 33.4741 30.8772V27.2431C36.0319 27.2431 38.1633 26.391 39.6428 24.9123C41.1474 23.4085 42 21.2781 42 18.7217V8.52137C42 3.75946 39.041 0.47624 34.4772 0.0501743C34.1512 0.0251116 33.8252 0 33.4741 0H16.4474C11.3319 0 7.92152 3.40858 7.92152 8.52137V18.7217Z"/>
</clipPath><linearGradient id="paint0_linear_0_32" x1="13.6015" y1="16.293" x2="13.6015" y2="42.3002" gradientUnits="userSpaceOnUse">
<stop stop-color="#FF71A0"/>
<stop offset="1" stop-color="#FF4682"/>
</linearGradient>
<linearGradient id="paint1_linear_0_32" x1="37.0957" y1="-1.16359" x2="5.89892" y2="17.8886" gradientUnits="userSpaceOnUse">
<stop stop-color="white" stop-opacity="0.1"/>
<stop offset="0.473958" stop-color="#FFB7CF"/>
<stop offset="1" stop-color="white" stop-opacity="0.5"/>
</linearGradient>
</defs>
</svg>
