<svg preserveAspectRatio="none" overflow="visible" style="display: block;" width="85.0169" height="16.0049" viewBox="0 0 85.0169 16.0049" fill="none" xmlns="http://www.w3.org/2000/svg">
<g id="Group">
<path id="Vector" d="M16.0387 6.93777C16.0387 6.93777 16.4362 2.44124 16.4766 2.001C16.4884 1.74504 16.4484 1.48934 16.359 1.24913C16.2696 1.00892 16.1327 0.789128 15.9562 0.602846C15.7798 0.416566 15.5677 0.26761 15.3323 0.164862C15.0971 0.0621115 14.8435 0.00767003 14.5866 0.00478162H3.20896C2.68444 -0.031483 2.16666 0.139615 1.76759 0.481087C1.36851 0.82256 1.12019 1.30697 1.0763 1.82961C1.02577 2.35723 0.0857763 13.2289 0.0150244 13.8539C-0.0185853 14.1202 0.004342 14.3904 0.0823157 14.6473C0.16029 14.9041 0.291565 15.1415 0.467607 15.3445C0.64365 15.5473 0.860519 15.7109 1.10412 15.8247C1.34772 15.9384 1.61259 15.9998 1.88153 16.0048H13.2052C14.7045 16.0048 15.2873 15.2116 15.4154 13.9884C15.4929 13.2592 15.8499 8.83318 15.8499 8.83318H9.02747L8.73099 12.2509H6.99925L7.74383 3.75861H9.47557L9.20267 6.93777H16.0387Z" fill="#DFF0EB" fill-opacity="0.5"/>
<path id="Vector_2" d="M26.5912 1.37944C26.3486 2.07845 24.3574 8.29227 24.3574 8.29227L25.2435 0.00493741H18.4075L16.9756 16.0049H22.1271C23.4208 16.0049 23.8656 15.2723 24.0812 14.6843C24.3372 13.9852 26.234 8.7426 26.234 8.7426L25.5366 16.0049H32.3759L33.7842 0.00493741H28.4172C28.0036 0.0017904 27.6006 0.13476 27.2705 0.383251C26.9403 0.631741 26.7016 0.981883 26.5912 1.37944Z" fill="#DFF0EB" fill-opacity="0.5"/>
<path id="Vector_3" d="M61.2325 0.00488281L60.5925 7.29746H58.8574L59.4975 0.00488281H52.6615C52.6615 0.00488281 52.0045 7.73436 51.9338 8.47369C51.8528 9.36426 52.3582 10.6279 53.8743 10.6279H60.2994L60.1578 12.2476H51.6036L51.2666 16.0015H64.8746C65.7978 16.0015 66.6872 15.4 66.8084 14.1162C66.8927 13.2962 68.0719 0.00488281 68.0719 0.00488281H61.2325Z" fill="#DFF0EB" fill-opacity="0.5"/>
<path id="Vector_4" d="M79.0789 0.00488281H69.7902L68.3887 16.0015H75.2281L75.6593 11.0513H82.3033C83.4791 11.0513 84.2607 10.4531 84.3854 9.08197C84.4359 8.55099 84.975 2.48503 85.0121 1.95069C85.0929 0.767748 84.1495 0.00488281 82.9905 0.00488281H79.0789ZM75.9524 7.73436L76.2893 3.76544H78.0042L77.6673 7.73436H75.9524Z" fill="#DFF0EB" fill-opacity="0.5"/>
<path id="Vector_5" d="M41.8933 5.38175L42.0383 3.75855H50.6026L50.9395 0.00472122H35.5257L34.1241 16.0047H47.7725C48.6383 16.0047 49.5783 15.4905 49.6997 14.153C49.7906 13.1449 50.2118 8.39288 50.2893 7.52919C50.3903 6.3765 49.6592 5.38175 48.2173 5.38175H41.8933ZM42.9984 12.6776H41.2532L41.5902 8.70878H43.3353L42.9984 12.6776Z" fill="#DFF0EB" fill-opacity="0.5"/>
</g>
</svg>
