<svg width="64" height="64" viewBox="0 0 64 64" fill="none" xmlns="http://www.w3.org/2000/svg">
<path d="M59.999 44.5156C59.999 48.5756 57.0889 50.2836 53.5351 48.3236L42.5383 42.1916C41.363 41.5476 39.4602 41.5476 38.2849 42.1916L27.288 48.3236C23.7343 50.2836 20.8242 48.5756 20.8242 44.5156V12.7079C20.8242 7.91992 24.7417 4 29.5266 4H51.2966C56.0815 4 59.999 7.91992 59.999 12.7079V44.5156Z" fill="url(#paint0_linear_12409_42536)"/>
<foreignObject x="-5.94077" y="4.92251" width="59.0573" height="65.0183"><div xmlns="http://www.w3.org/1999/xhtml" style="backdrop-filter:blur(4.97px);clip-path:url(#bgblur_0_12409_42536_clip_path);height:100%;width:100%"></div></foreignObject><path data-figma-bg-blur-radius="9.94077" d="M43.1748 55.3789C43.1748 59.4389 40.2646 61.1468 36.7109 59.1869L25.714 53.0549C24.5388 52.4109 22.636 52.4109 21.4607 53.0549L10.4638 59.1869C6.91012 61.1468 4 59.4389 4 55.3789V23.5712C4 18.7832 7.91743 14.8633 12.7024 14.8633H34.4724C39.2573 14.8633 43.1748 18.7832 43.1748 23.5712V55.3789Z" fill="#FFB4CD" fill-opacity="0.3"/>
<path d="M12.7021 15.3633H34.4727C38.981 15.3634 42.6748 19.0593 42.6748 23.5713V55.3789C42.6748 57.2984 41.9907 58.539 41.0215 59.1094C40.0518 59.6798 38.6326 59.6758 36.9521 58.749L25.958 52.6182L25.9541 52.6162C25.2748 52.2441 24.417 52.0723 23.5869 52.0723C22.7569 52.0723 21.8998 52.2442 21.2207 52.6162L21.2168 52.6182L10.2227 58.749C8.54225 59.6758 7.12301 59.6798 6.15332 59.1094C5.18408 58.539 4.5 57.2984 4.5 55.3789V23.5713C4.5 19.0592 8.19377 15.3634 12.7021 15.3633Z" stroke="url(#paint1_linear_12409_42536)"/>
<path d="M25.6843 29.9007V26.4008C25.6843 25.2528 24.7329 24.3008 23.5857 24.3008C22.4384 24.3008 21.487 25.2528 21.487 26.4008V29.9007H17.9893C16.842 29.9007 15.8906 30.8527 15.8906 32.0007C15.8906 33.1487 16.842 34.1007 17.9893 34.1007H21.487V37.6007C21.487 38.7487 22.4384 39.7006 23.5857 39.7006C24.7329 39.7006 25.6843 38.7487 25.6843 37.6007V34.1007H29.1821C30.3293 34.1007 31.2807 33.1487 31.2807 32.0007C31.2807 30.8527 30.3293 29.9007 29.1821 29.9007H25.6843Z" fill="white"/>
<defs>
<clipPath id="bgblur_0_12409_42536_clip_path" transform="translate(5.94077 -4.92251)"><path d="M43.1748 55.3789C43.1748 59.4389 40.2646 61.1468 36.7109 59.1869L25.714 53.0549C24.5388 52.4109 22.636 52.4109 21.4607 53.0549L10.4638 59.1869C6.91012 61.1468 4 59.4389 4 55.3789V23.5712C4 18.7832 7.91743 14.8633 12.7024 14.8633H34.4724C39.2573 14.8633 43.1748 18.7832 43.1748 23.5712V55.3789Z"/>
</clipPath><linearGradient id="paint0_linear_12409_42536" x1="40.4116" y1="4" x2="40.4116" y2="49.1362" gradientUnits="userSpaceOnUse">
<stop stop-color="#FF71A0"/>
<stop offset="1" stop-color="#FF4682"/>
</linearGradient>
<linearGradient id="paint1_linear_12409_42536" x1="9.6377" y1="13.2513" x2="48.8147" y2="33.1042" gradientUnits="userSpaceOnUse">
<stop stop-color="white" stop-opacity="0.1"/>
<stop offset="0.473958" stop-color="#FFB7CF"/>
<stop offset="1" stop-color="white" stop-opacity="0.5"/>
</linearGradient>
</defs>
</svg>
