<svg width="109" height="22" viewBox="0 0 109 22" fill="none" xmlns="http://www.w3.org/2000/svg">
<g clip-path="url(#clip0_11224_33162)">
<path d="M42.1804 7.51544C42.5568 4.79611 41.0247 2.87109 37.1747 2.87109H30.234L28.3057 16.5976H31.9692L32.562 12.3846H34.8234L37.0332 16.5976H41.2729L38.6718 11.7901C40.6917 10.9841 41.8907 9.58699 42.1804 7.51544ZM38.4486 7.81851C38.2954 8.90258 37.4029 9.54869 36.0573 9.54869H32.9717L33.4712 6.02505H36.5103C37.6826 6.02505 38.6351 6.48466 38.4486 7.81851Z" fill="#DFF0EB" fill-opacity="0.5"/>
<path d="M53.7306 2.87109L49.2411 11.86L47.2778 2.87109H43.1597L46.7866 16.5976H50.2386L57.7505 2.87109H53.7306Z" fill="#DFF0EB" fill-opacity="0.5"/>
<path d="M57.2926 16.5976H60.9811L62.9111 2.87109H59.221L57.2926 16.5976Z" fill="#DFF0EB" fill-opacity="0.5"/>
<path d="M7.83328 5.43345C9.16547 5.43345 10.3461 5.86474 11.4968 6.66406L13.6866 4.23281C12.3894 3.1987 10.4177 2.47266 8.25292 2.47266C4.29964 2.47266 2.18479 4.44763 1.8584 6.75898C1.552 8.92378 2.45789 10.0778 6.34289 11.0603C8.61261 11.6348 9.25705 11.9395 9.14049 12.7255C9.03724 13.4149 8.27456 13.9411 6.63264 13.9411C4.88747 13.9411 3.69183 13.4965 2.33133 12.4058L0 14.6655C1.54701 16.0577 3.61856 16.9037 6.24464 16.9037C11.4069 16.9037 12.844 14.0011 13.0371 12.6389C13.4351 9.82634 11.993 9.03036 8.30787 8.14279C5.70344 7.51499 5.49528 7.18361 5.5902 6.54583C5.7051 5.77482 6.43947 5.43345 7.83328 5.43345Z" fill="#DFF0EB" fill-opacity="0.5"/>
<path d="M101.19 13.2513C100.835 14.7554 99.9821 16.0955 98.77 17.0542C97.5579 18.0131 96.0575 18.5343 94.5122 18.5335C92.4906 18.5335 91.0418 17.5177 90.1825 15.934L87.9328 11.7892C89.9311 10.9849 91.1484 9.59779 91.4415 7.50958C91.8228 4.79191 90.2858 2.86523 86.4457 2.86523H79.5017L77.5734 16.5918H81.2369L81.8297 12.3787H84.0911L86.3259 16.6417C88.4007 20.5967 91.17 21.804 94.5122 21.804C99.5162 21.804 103.917 18.4535 104.772 13.2463L101.19 13.2513ZM87.7013 7.81765C87.5481 8.90172 86.6556 9.54783 85.3101 9.54783H82.2327L82.7323 6.02419H85.773C86.9437 6.02419 87.8962 6.48379 87.7097 7.81765H87.7013Z" fill="#DFF0EB" fill-opacity="0.5"/>
<path d="M14.6323 16.5976H25.6245L26.0492 13.5936H18.5589L18.922 11.0224H25.6262L26.0059 8.34639H19.3016L19.653 5.87518H27.045L27.4713 2.87109H16.5757L14.6323 16.5976Z" fill="#DFF0EB" fill-opacity="0.5"/>
<path d="M63.9834 16.5976H74.9756L75.4019 13.5936H67.91L68.2747 11.0224H74.979L75.3586 8.34639H68.6544L69.0041 5.87518H76.3977L76.8224 2.87109H65.9284L63.9834 16.5976Z" fill="#DFF0EB" fill-opacity="0.5"/>
<path d="M102.983 0.0664062L104.064 2.53928L106.48 1.33865L105.719 3.92809L108.342 4.56255L106.094 6.0546L107.696 8.22773L105.013 7.92633L104.845 10.619L102.983 8.66403L101.123 10.619L100.953 7.92633L98.2723 8.22773L99.8743 6.0546L97.6262 4.56255L100.249 3.92809L99.488 1.33865L101.904 2.53928L102.983 0.0664062Z" fill="#DFF0EB" fill-opacity="0.5"/>
</g>
<defs>
<clipPath id="clip0_11224_33162">
<rect width="108.407" height="21.8146" fill="white"/>
</clipPath>
</defs>
</svg>
